<svg width="178" height="30" viewBox="0 0 2152 361" fill="none" xmlns="http://www.w3.org/2000/svg">
<rect width="2152" height="361" fill="white"/>
<path d="M1797 283.788C1791.47 234.455 1776.16 188.872 1752.48 152.53C1746.25 142.941 1739.57 134.242 1732.55 126.394C1725.73 133.005 1719.36 140.119 1713.49 147.735C1742.02 179.4 1762.62 227.766 1769.55 283.788H1797V283.788Z" fill="#007B7C"/>
<path d="M1745.61 283.788C1740.43 246.72 1728.51 212.57 1710.68 184.915C1706.82 178.925 1702.72 173.324 1698.48 168.151C1693.23 177.058 1688.57 186.432 1684.58 196.234C1700.81 218.91 1712.76 249.287 1718.22 283.788H1745.61Z" fill="#007B7C"/>
<path d="M1675.15 225.97C1670.82 244.356 1668.51 263.759 1668.51 283.788H1694.21C1690.5 262.624 1684.06 242.986 1675.15 225.97Z" fill="#007B7C"/>
<path d="M1901.64 283.788C1909.94 206.246 1940.71 154.025 1967.12 122.517C1969.3 119.942 1971.48 117.444 1973.67 115.024C1970.02 112.18 1966.22 109.49 1962.4 106.916C1960.64 108.876 1958.89 110.874 1957.21 112.91C1934.66 139.731 1909.19 180.808 1895.66 238.6C1891.51 215.275 1885.71 192.758 1878.31 171.317C1892.98 136.081 1911.19 108.876 1927.94 88.7407C1923.43 86.9347 1918.81 85.3209 1914.16 83.8607C1899.74 101.844 1884.6 124.745 1871.54 153.103C1862.13 129.587 1850.68 107.608 1837.37 87.7032C1835.19 84.4755 1833.01 81.2862 1830.75 78.2122C1820.45 79.9029 1810.43 82.5158 1800.73 85.8588C1823.99 114.755 1842.92 151.336 1855.91 193.104C1851.11 207.821 1847 223.614 1843.74 240.598C1834.58 195.794 1818.16 154.679 1795.29 120.48C1789.42 111.719 1783.27 103.573 1776.83 96.08C1768.2 100.537 1759.9 105.648 1752.03 111.373C1788.78 151.297 1814.79 212.855 1822.16 283.75H1851.25C1853.44 259.734 1857.41 237.716 1862.71 217.619C1867.86 238.677 1871.51 260.81 1873.51 283.75H1901.64V283.788Z" fill="#007B7C"/>
<path d="M1948.45 283.75C1956.33 223.841 1980.51 183.129 2001.44 158.192C2002.89 156.481 2004.34 154.809 2005.79 153.212C2002.96 149.525 2000.03 145.914 1996.95 142.454C1967.47 174.918 1942.79 222.054 1935.12 283.788H1948.45V283.75Z" fill="#007B7C"/>
<path d="M2000.03 283.788C2006.42 245.741 2020.75 217.858 2034.7 198.621C2032.7 193.714 2030.56 188.924 2028.24 184.212C2008.88 208.941 1993.01 242.12 1986.51 283.788H2000.03V283.788Z" fill="#007B7C"/>
<path d="M2048.4 248.454C2044.05 259.115 2040.44 270.906 2037.91 283.788H2050.76C2050.79 271.754 2049.98 259.963 2048.4 248.454Z" fill="#007B7C"/>
<path d="M797.275 81.4243H756.273V280.576H868.697V241.323H797.275V81.4243Z" fill="#007B7C"/>
<path d="M1098.96 81.4243H1083.91V280.576H1183.49V266H1098.96V81.4243Z" fill="#007B7C"/>
<path d="M1215.61 81.4243H1199.55V280.576H1215.61V81.4243Z" fill="#007B7C"/>
<path d="M1455.48 266V185.618H1537.33V171.475H1455.48V95.9999H1543.37V81.4243H1440.45V280.576H1546.45V266H1455.48Z" fill="#007B7C"/>
<path d="M1390.36 266H1387.3L1281.02 81.4243H1254.15V280.576H1269.05V95.9999H1272.64L1378.92 280.576H1405.12V81.4243H1390.36V266Z" fill="#007B7C"/>
<path d="M287.129 241.323H284.071L253.759 86.9082H210.949L183.96 241.323H179.972L143.145 81.4243H101L146.203 280.576H209.354L232.088 159.209L256.551 280.576H321.031L361.182 81.4243H318.904L287.129 241.323Z" fill="#007B7C"/>
<path d="M1030.16 108.212C1010.68 87.0369 985.105 78.0669 955.819 78.2139H887.97V283.788H955.819C972.383 283.788 986.828 280.994 999.152 275.259C1022.47 264.819 1040.1 245.114 1048.85 220.116C1053.75 206.293 1055.34 192.03 1054.94 177.619C1054.94 151.738 1046.99 126.593 1030.16 108.212ZM1008.3 208.205C1003.13 223.204 993.454 233.938 979.937 239.673C973.046 242.614 965.36 243.938 956.614 243.938H929.05V118.064H956.614C965.36 118.064 973.046 119.388 979.937 121.887C993.586 127.034 1003.13 137.622 1008.3 152.473C1013.46 168.208 1013.6 192.324 1008.3 208.205Z" fill="#007B7C"/>
<path d="M503.81 83.9393C480.048 72.0202 441.166 72.0202 417.404 83.9393C393.778 95.1316 376.092 115.481 367.451 140.773C362.456 154.872 360.836 169.117 361.241 183.798C361.511 222.172 382.977 260.836 416.729 277.407C440.626 290.198 480.858 290.198 504.755 277.407C538.507 260.836 559.973 222.172 560.243 183.798C561.323 156.326 552.683 128.272 534.997 107.777C526.491 97.748 516.23 89.8989 503.81 83.9393ZM460.742 246.01C425.235 246.01 404.849 215.922 404.849 181.036C404.849 144.843 424.02 116.063 460.742 116.063C491.929 116.063 516.635 139.174 516.635 181.036C516.635 216.212 495.844 246.01 460.742 246.01Z" fill="#007B7C"/>
<path d="M718.342 186.886C725.185 176.412 728.136 160.991 727.6 145.57C727.6 130.731 724.514 118.365 718.476 108.327C704.119 85.3407 679.029 78.5031 652.328 78.2122H579.606V280.576H621.2V218.456C622.005 218.456 651.791 218.456 652.731 218.456L692.044 280.576H740.212L692.983 208.708C703.717 203.762 712.17 196.633 718.342 186.886ZM680.371 165.501C674.869 175.83 665.611 180.776 654.207 180.776H621.066V117.637H654.341C660.379 117.637 665.611 117.783 670.039 120.402C674.467 123.02 677.955 126.803 680.371 131.604C685.469 140.914 685.603 156.044 680.371 165.501Z" fill="#007B7C"/>
</svg>
